<svg xmlns="http://www.w3.org/2000/svg" xmlns:xlink="http://www.w3.org/1999/xlink" width="300" zoomAndPan="magnify" viewBox="0 0 224.87999 89.999999" height="120" preserveAspectRatio="xMidYMid meet" version="1.0"><defs><clipPath id="b0bd034e34"><path d="M 74.523438 7.085938 L 150.234375 7.085938 L 150.234375 82.796875 L 74.523438 82.796875 Z M 74.523438 7.085938 " clip-rule="nonzero"/></clipPath></defs><g clip-path="url(#b0bd034e34)"><path fill="#ffffff" d="M 139.246094 18.191406 C 132.085938 11.027344 122.566406 7.085938 112.4375 7.085938 C 102.3125 7.085938 92.789062 11.027344 85.628906 18.191406 C 78.46875 25.351562 74.523438 34.871094 74.523438 45 C 74.523438 55.125 78.46875 64.648438 85.628906 71.808594 C 92.789062 78.96875 102.3125 82.910156 112.4375 82.910156 C 122.566406 82.910156 132.085938 78.96875 139.246094 71.808594 C 146.410156 64.648438 150.351562 55.125 150.351562 45 C 150.351562 34.871094 146.410156 25.351562 139.246094 18.191406 Z M 139.246094 18.191406 " fill-opacity="1" fill-rule="nonzero"/></g><path fill="#4cbbad" d="M 121.492188 26.992188 C 122.085938 27.585938 122.617188 28.234375 123.085938 28.929688 C 123.554688 29.628906 123.949219 30.367188 124.269531 31.144531 C 124.589844 31.921875 124.832031 32.722656 124.996094 33.546875 C 125.160156 34.371094 125.242188 35.203125 125.242188 36.046875 C 125.242188 36.886719 125.160156 37.71875 124.996094 38.542969 C 124.832031 39.367188 124.589844 40.167969 124.269531 40.945312 C 123.949219 41.722656 123.554688 42.460938 123.085938 43.160156 C 122.617188 43.859375 122.085938 44.503906 121.492188 45.101562 C 120.898438 45.695312 120.253906 46.226562 119.554688 46.691406 C 118.855469 47.160156 118.117188 47.554688 117.339844 47.875 C 116.5625 48.195312 115.761719 48.441406 114.9375 48.605469 C 114.113281 48.769531 113.28125 48.851562 112.4375 48.851562 C 111.597656 48.851562 110.765625 48.769531 109.941406 48.605469 C 109.117188 48.441406 108.316406 48.195312 107.539062 47.875 C 106.761719 47.554688 106.023438 47.160156 105.324219 46.691406 C 104.625 46.226562 103.980469 45.695312 103.386719 45.101562 C 102.789062 44.503906 102.257812 43.859375 101.792969 43.160156 C 101.324219 42.460938 100.929688 41.722656 100.609375 40.945312 C 100.289062 40.167969 100.042969 39.367188 99.878906 38.542969 C 99.714844 37.71875 99.632812 36.886719 99.632812 36.046875 C 99.632812 35.203125 99.714844 34.371094 99.878906 33.546875 C 100.042969 32.722656 100.289062 31.921875 100.609375 31.144531 C 100.929688 30.367188 101.324219 29.628906 101.792969 28.929688 C 102.257812 28.234375 102.789062 27.585938 103.386719 26.992188 C 103.980469 26.398438 104.625 25.867188 105.324219 25.398438 C 106.023438 24.933594 106.761719 24.539062 107.539062 24.214844 C 108.316406 23.894531 109.117188 23.652344 109.941406 23.488281 C 110.765625 23.324219 111.597656 23.242188 112.4375 23.242188 C 113.28125 23.242188 114.113281 23.324219 114.9375 23.488281 C 115.761719 23.652344 116.5625 23.894531 117.339844 24.214844 C 118.117188 24.539062 118.855469 24.933594 119.554688 25.398438 C 120.253906 25.867188 120.898438 26.398438 121.492188 26.992188 Z M 121.492188 26.992188 " fill-opacity="1" fill-rule="nonzero"/><path fill="#4cbbad" d="M 112.808594 54.539062 L 112.070312 54.539062 C 101.605469 54.539062 92.796875 61.605469 90.140625 71.222656 C 96.152344 76.34375 103.941406 79.4375 112.4375 79.4375 C 120.9375 79.4375 128.722656 76.34375 134.738281 71.222656 C 132.082031 61.605469 123.273438 54.539062 112.808594 54.539062 Z M 112.808594 54.539062 " fill-opacity="1" fill-rule="nonzero"/></svg>